<svg width="9" height="14" viewBox="0 0 9 14" fill="none" xmlns="http://www.w3.org/2000/svg">
<g clip-path="url(#clip0_714_13)">
<path d="M4.92171 13.3593V12.1615C5.92971 12.096 6.73808 11.7982 7.3468 11.268C7.95553 10.7379 8.25989 10.0342 8.25989 9.15714V9.03932C8.25989 8.22768 7.97517 7.5895 7.40571 7.12477C6.83626 6.66005 6.00826 6.36223 4.92171 6.23132V3.42332C5.37989 3.54114 5.74971 3.75059 6.03117 4.05168C6.31262 4.35277 6.45335 4.71932 6.45335 5.15132V5.38696H7.94571V5.0335C7.94571 4.66696 7.87371 4.31677 7.72971 3.98296C7.58281 3.64476 7.37666 3.33554 7.12099 3.06986C6.84556 2.78494 6.52347 2.54919 6.16862 2.37277C5.77566 2.17649 5.35527 2.04077 4.92171 1.97023V0.713501H3.50789V1.93096C3.11174 1.96801 2.7222 2.05714 2.34935 2.19605C1.9828 2.3335 1.66208 2.51677 1.38717 2.74586C1.11226 2.97496 0.892984 3.24986 0.729348 3.57059C0.565712 3.89132 0.483893 4.26114 0.483893 4.68005V4.79786C0.483893 5.58332 0.742439 6.19532 1.25953 6.63386C1.77662 7.07241 2.52608 7.35714 3.50789 7.48805V10.6888C2.93189 10.5579 2.4868 10.3026 2.17262 9.92296C1.85844 9.54332 1.70135 9.03932 1.70135 8.41096V8.17532H0.208984V8.64659C0.208984 9.02623 0.274439 9.40259 0.405348 9.77568C0.536257 10.1488 0.735893 10.4957 1.00426 10.8164C1.27262 11.1371 1.61298 11.412 2.02535 11.6411C2.43771 11.8702 2.93189 12.0306 3.50789 12.1222V13.3593H4.92171ZM3.50789 6.07423C2.94498 5.9695 2.55553 5.80259 2.33953 5.5735C2.12353 5.34441 2.01553 5.04659 2.01553 4.68005C2.01553 4.30041 2.15953 3.99932 2.44753 3.77677C2.73553 3.55423 3.08898 3.41023 3.50789 3.34477V6.07423V6.07423ZM4.92171 10.7477V7.64514C5.55008 7.74986 6.00826 7.9135 6.29626 8.13605C6.58426 8.35859 6.72826 8.69896 6.72826 9.15714C6.72826 9.60223 6.56789 9.96223 6.24717 10.2371C5.92644 10.512 5.48462 10.6822 4.92171 10.7477Z" fill="#A3A3A3"/>
</g>
<defs>
<clipPath id="clip0_714_13">
<rect width="9" height="13.9091" fill="white"/>
</clipPath>
</defs>
</svg>
